{
  "source": "C:\\Users\\Peter\\Desktop\\stuff\\MIUN\\quantitative_research\\video_compression\\videos\\BVI-HD\\BVI-HD_CDVL_videos\\ORIG\\Music_1920x1080_30fps.mp4",
  "output": "C:\\Users\\Peter\\Desktop\\stuff\\MIUN\\quantitative_research\\video_compression\\compressed_videos\\BVI-HD\\av1\\1.5\\Music_1920x1080_30fps_av1.mkv",
  "codec": "av1",
  "ok": "Input #0, mov,mp4,m4a,3gp,3g2,mj2, from 'C:\\Users\\Peter\\Desktop\\stuff\\MIUN\\quantitative_research\\video_compression\\videos\\BVI-HD\\BVI-HD_CDVL_videos\\ORIG\\Music_1920x1080_30fps.mp4':\n  Metadata:\n    major_brand     : isom\n    minor_version   : 512\n    compatible_brands: isomiso2avc1mp41\n    encoder         : Lavf54.28.101\n  Duration: 00:00:05.00, start: 0.000000, bitrate: 192710 kb/s\n  Stream #0:0[0x1](und): Video: h264 (High 4:4:4 Predictive) (avc1 / 0x31637661), yuv420p(progressive), 1920x1080, 192707 kb/s, 30 fps, 30 tbr, 30 tbn (default)\n    Metadata:\n      handler_name    : VideoHandler\n      vendor_id       : [0][0][0][0]\n[out#0/matroska @ 0000027294941200] Codec AVOption b:a (set bitrate (in bits/s)) has not been used for any stream. The most likely reason is either wrong type (e.g. a video option with no video streams) or that it is a private option of some decoder which was not actually used for any stream.\nStream mapping:\n  Stream #0:0 -> #0:0 (h264 (native) -> av1 (libsvtav1))\nPress [q] to stop, [?] for help\nSvt[info]: -------------------------------------------\nSvt[info]: SVT [version]:\tSVT-AV1 Encoder Lib v3.1.0-19-g6ecfe8ec\nSvt[info]: SVT [build]  :\tGCC 15.2.0\t 64 bit\nSvt[info]: LIB Build date: Aug 17 2025 11:37:13\nSvt[info]: -------------------------------------------\nSvt[info]: Level of Parallelism: 5\nSvt[info]: Number of PPCS 93\nSvt[info]: [asm level on system : up to avx2]\nSvt[info]: [asm level selected : up to avx2]\nSvt[info]: -------------------------------------------\nSvt[info]: SVT [config]: main profile\ttier (auto)\tlevel (auto)\nSvt[info]: SVT [config]: width / height / fps numerator / fps denominator \t\t: 1920 / 1080 / 30 / 1\nSvt[info]: SVT [config]: bit-depth / color format \t\t\t\t\t: 8 / YUV420\nSvt[info]: SVT [config]: preset / tune / pred struct \t\t\t\t\t: 4 / PSNR / random access\nSvt[info]: SVT [config]: gop size / mini-gop size / key-frame type \t\t\t: 161 / 16 / key frame\nSvt[info]: SVT [config]: BRC mode / target bitrate (kbps)\t\t\t\t: VBR / 1500 \nSvt[info]: SVT [config]: AQ mode / Variance Boost \t\t\t\t\t: 2 / 0\nSvt[info]: SVT [config]: sharpness / luminance-based QP bias \t\t\t\t: 0 / 0\nSvt[info]: SVT [config]: QP scale compress strength \t\t\t\t\t: 0\nSvt[info]: -------------------------------------------\nOutput #0, matroska, to 'C:\\Users\\Peter\\Desktop\\stuff\\MIUN\\quantitative_research\\video_compression\\compressed_videos\\BVI-HD\\av1\\1.5\\Music_1920x1080_30fps_av1.mkv':\n  Metadata:\n    major_brand     : isom\n    minor_version   : 512\n    compatible_brands: isomiso2avc1mp41\n    encoder         : Lavf62.3.100\n  Stream #0:0(und): Video: av1 (AV01 / 0x31305641), yuv420p(tv, progressive), 1920x1080, q=2-31, 1500 kb/s, 30 fps, 1k tbn (default)\n    Metadata:\n      encoder         : Lavc62.11.100 libsvtav1\n      handler_name    : VideoHandler\n      vendor_id       : [0][0][0][0]\n    Side data:\n      cpb: bitrate max/min/avg: 0/0/1500000 buffer size: 1500000 vbv_delay: N/A\nframe=    0 fps=0.0 q=0.0 size=       0KiB time=N/A bitrate=N/A speed=N/A elapsed=0:00:01.06    \nframe=    0 fps=0.0 q=0.0 size=       0KiB time=N/A bitrate=N/A speed=N/A elapsed=0:00:01.61    \nframe=    0 fps=0.0 q=0.0 size=       0KiB time=N/A bitrate=N/A speed=N/A elapsed=0:00:02.26    \nframe=    0 fps=0.0 q=0.0 size=       0KiB time=N/A bitrate=N/A speed=N/A elapsed=0:00:02.85    \nframe=    1 fps=0.3 q=27.0 size=       1KiB time=00:00:00.00 bitrate=N/A speed=   0x elapsed=0:00:03.38    \nframe=    1 fps=0.3 q=27.0 size=       1KiB time=00:00:00.00 bitrate=N/A speed=   0x elapsed=0:00:03.95    \nframe=    1 fps=0.2 q=27.0 size=       1KiB time=00:00:00.00 bitrate=N/A speed=   0x elapsed=0:00:04.48    \nframe=    6 fps=1.2 q=43.0 size=       1KiB time=00:00:00.16 bitrate=  34.2kbits/s speed=0.0331x elapsed=0:00:05.03    \nframe=    9 fps=1.6 q=37.0 size=       1KiB time=00:00:00.23 bitrate=  24.4kbits/s speed=0.042x elapsed=0:00:05.55    \nframe=   12 fps=2.0 q=39.0 size=       1KiB time=00:00:00.36 bitrate=  15.6kbits/s speed=0.06x elapsed=0:00:06.10    \nframe=   19 fps=2.9 q=41.0 size=       1KiB time=00:00:00.60 bitrate=   9.5kbits/s speed=0.0906x elapsed=0:00:06.61    \nframe=   22 fps=3.1 q=37.0 size=       1KiB time=00:00:00.70 bitrate=   8.1kbits/s speed=0.0977x elapsed=0:00:07.16    \nframe=   24 fps=3.1 q=36.0 size=       1KiB time=00:00:00.76 bitrate=   7.4kbits/s speed=0.0993x elapsed=0:00:07.72    \nframe=   29 fps=3.5 q=37.0 size=       1KiB time=00:00:00.90 bitrate=   6.3kbits/s speed=0.109x elapsed=0:00:08.25    \nframe=   33 fps=3.8 q=30.0 size=       1KiB time=00:00:01.06 bitrate=   5.3kbits/s speed=0.121x elapsed=0:00:08.78    \nframe=   37 fps=4.0 q=37.0 size=       1KiB time=00:00:01.20 bitrate=   4.8kbits/s speed=0.129x elapsed=0:00:09.31    \nframe=   39 fps=4.0 q=37.0 size=       1KiB time=00:00:01.26 bitrate=   4.5kbits/s speed=0.129x elapsed=0:00:09.82    \nframe=   43 fps=4.2 q=39.0 size=       1KiB time=00:00:01.40 bitrate=   4.1kbits/s speed=0.135x elapsed=0:00:10.34    \nframe=   49 fps=4.5 q=20.0 size=       1KiB time=00:00:01.60 bitrate=   3.6kbits/s speed=0.147x elapsed=0:00:10.87    \nframe=   52 fps=4.6 q=40.0 size=       1KiB time=00:00:01.70 bitrate=   3.4kbits/s speed=0.149x elapsed=0:00:11.38    \nframe=   57 fps=4.8 q=32.0 size=       1KiB time=00:00:01.86 bitrate=   3.1kbits/s speed=0.157x elapsed=0:00:11.89    \nframe=   59 fps=4.7 q=39.0 size=       1KiB time=00:00:01.93 bitrate=   3.0kbits/s speed=0.156x elapsed=0:00:12.42    \nframe=   63 fps=4.9 q=39.0 size=       1KiB time=00:00:02.06 bitrate=   2.8kbits/s speed=0.16x elapsed=0:00:12.94    \nframe=   67 fps=5.0 q=39.0 size=       1KiB time=00:00:02.20 bitrate=   2.6kbits/s speed=0.163x elapsed=0:00:13.47    \nframe=   73 fps=5.2 q=32.0 size=       1KiB time=00:00:02.40 bitrate=   2.4kbits/s speed=0.172x elapsed=0:00:13.98    \nframe=   73 fps=5.0 q=32.0 size=       1KiB time=00:00:02.40 bitrate=   2.4kbits/s speed=0.165x elapsed=0:00:14.50    \nframe=   77 fps=5.1 q=36.0 size=       1KiB time=00:00:02.53 bitrate=   2.3kbits/s speed=0.168x elapsed=0:00:15.03    \nframe=   85 fps=5.5 q=39.0 size=       1KiB time=00:00:02.80 bitrate=   2.0kbits/s speed=0.18x elapsed=0:00:15.56    \nframe=   89 fps=5.5 q=34.0 size=       1KiB time=00:00:02.93 bitrate=   1.9kbits/s speed=0.182x elapsed=0:00:16.07    \nframe=   91 fps=5.5 q=40.0 size=       1KiB time=00:00:03.00 bitrate=   1.9kbits/s speed=0.181x elapsed=0:00:16.59    \nframe=   95 fps=5.5 q=39.0 size=       1KiB time=00:00:03.13 bitrate=   1.8kbits/s speed=0.183x elapsed=0:00:17.11    \nframe=  101 fps=5.7 q=39.0 size=       1KiB time=00:00:03.33 bitrate=   1.7kbits/s speed=0.189x elapsed=0:00:17.63    \nframe=  105 fps=5.8 q=35.0 size=       1KiB time=00:00:03.46 bitrate=   1.6kbits/s speed=0.191x elapsed=0:00:18.15    \nframe=  107 fps=5.7 q=40.0 size=       1KiB time=00:00:03.53 bitrate=   1.6kbits/s speed=0.189x elapsed=0:00:18.67    \nframe=  113 fps=5.9 q=27.0 size=       1KiB time=00:00:03.73 bitrate=   1.5kbits/s speed=0.195x elapsed=0:00:19.18    \nframe=  119 fps=6.0 q=42.0 size=       1KiB time=00:00:03.93 bitrate=   1.5kbits/s speed= 0.2x elapsed=0:00:19.71    \nframe=  121 fps=6.0 q=36.0 size=       1KiB time=00:00:04.00 bitrate=   1.4kbits/s speed=0.198x elapsed=0:00:20.24    \nframe=  127 fps=6.1 q=45.0 size=       1KiB time=00:00:04.20 bitrate=   1.4kbits/s speed=0.202x elapsed=0:00:20.75    \nframe=  133 fps=6.3 q=45.0 size=       1KiB time=00:00:04.40 bitrate=   1.3kbits/s speed=0.207x elapsed=0:00:21.27    \nframe=  137 fps=6.3 q=42.0 size=       1KiB time=00:00:04.53 bitrate=   1.3kbits/s speed=0.208x elapsed=0:00:21.80    \n[out#0/matroska @ 0000027294941200] video:879KiB audio:0KiB subtitle:0KiB other streams:0KiB global headers:0KiB muxing overhead: 0.160957%\nframe=  150 fps=6.8 q=45.0 Lsize=     880KiB time=00:00:04.96 bitrate=1451.4kbits/s speed=0.224x elapsed=0:00:22.19    \n",
  "seconds": 22.592466354370117,
  "probe_out": {}
}